<svg width="59" height="67" viewBox="0 0 59 67" fill="none" xmlns="http://www.w3.org/2000/svg">
<path d="M35.873 55.7208L35.873 10.7155C35.873 9.53147 36.7179 8.57242 37.7611 8.57242L56.6416 8.57243C57.6848 8.57243 58.5297 9.53147 58.5297 10.7155L58.5297 55.7208C58.5297 56.9049 57.6848 57.8639 56.6416 57.8639L37.7611 57.8639C36.7179 57.8639 35.873 56.9049 35.873 55.7208Z" fill="#704DFF"/>
<path d="M2.91788e-05 55.7208L3.09119e-05 10.7155C3.09575e-05 9.53147 0.844935 8.57242 1.88808 8.57242L20.7686 8.57243C21.8118 8.57243 22.6567 9.53147 22.6567 10.7155L22.6567 55.7208C22.6567 56.9049 21.8118 57.8639 20.7686 57.8639L1.88808 57.8639C0.844933 57.8639 2.91332e-05 56.9049 2.91788e-05 55.7208Z" fill="#FF5C8D"/>
<path d="M28.3208 65.3648L28.3208 1.07155C28.3208 0.478985 28.7437 -7.26943e-08 29.2648 -4.68391e-08C29.7859 -2.09839e-08 30.2089 0.478985 30.2089 1.07155L30.2089 65.3648C30.2089 65.9574 29.7859 66.4364 29.2648 66.4364C28.7437 66.4364 28.3208 65.9574 28.3208 65.3648Z" fill="#D3D3D3"/>
</svg>
