<svg width="701" height="203" viewBox="0 0 701 203" fill="none" xmlns="http://www.w3.org/2000/svg">
<path d="M161.473 125.06L152.713 109.16H150.253V125.06H139.993V82.94H157.213C160.533 82.94 163.353 83.52 165.673 84.68C168.033 85.84 169.793 87.44 170.953 89.48C172.113 91.48 172.693 93.72 172.693 96.2C172.693 99 171.893 101.5 170.293 103.7C168.733 105.9 166.413 107.46 163.333 108.38L173.053 125.06H161.473ZM150.253 101.9H156.613C158.493 101.9 159.893 101.44 160.813 100.52C161.773 99.6 162.253 98.3 162.253 96.62C162.253 94.98 161.773 93.7 160.813 92.78C159.893 91.82 158.493 91.34 156.613 91.34H150.253V101.9Z" fill="black"/>
<path d="M210.693 107.72C210.693 108.64 210.633 109.62 210.513 110.66H187.293C187.453 112.78 188.113 114.4 189.273 115.52C190.433 116.64 191.893 117.2 193.653 117.2C196.213 117.2 197.993 116.12 198.993 113.96H209.913C209.353 116.16 208.333 118.14 206.853 119.9C205.413 121.66 203.593 123.04 201.393 124.04C199.193 125.04 196.733 125.54 194.013 125.54C190.733 125.54 187.813 124.84 185.253 123.44C182.693 122.04 180.693 120.04 179.253 117.44C177.813 114.84 177.093 111.8 177.093 108.32C177.093 104.84 177.793 101.8 179.193 99.2C180.633 96.6 182.633 94.6 185.193 93.2C187.753 91.8 190.693 91.1 194.013 91.1C197.253 91.1 200.133 91.78 202.653 93.14C205.173 94.5 207.133 96.44 208.533 98.96C209.973 101.48 210.693 104.4 210.693 107.72ZM200.193 105.44C200.193 103.52 199.593 102.02 198.393 100.94C197.193 99.86 195.693 99.32 193.893 99.32C192.133 99.32 190.653 99.86 189.453 100.94C188.293 101.98 187.573 103.48 187.293 105.44H200.193Z" fill="black"/>
<path d="M214.066 108.26C214.066 104.82 214.706 101.8 215.986 99.2C217.306 96.6 219.086 94.6 221.326 93.2C223.566 91.8 226.066 91.1 228.826 91.1C231.186 91.1 233.246 91.58 235.006 92.54C236.806 93.5 238.186 94.76 239.146 96.32V91.58H249.406V125.06H239.146V120.32C238.146 121.88 236.746 123.14 234.946 124.1C233.186 125.06 231.126 125.54 228.766 125.54C226.046 125.54 223.566 124.84 221.326 123.44C219.086 122 217.306 119.98 215.986 117.38C214.706 114.74 214.066 111.7 214.066 108.26ZM239.146 108.32C239.146 105.76 238.426 103.74 236.986 102.26C235.586 100.78 233.866 100.04 231.826 100.04C229.786 100.04 228.046 100.78 226.606 102.26C225.206 103.7 224.506 105.7 224.506 108.26C224.506 110.82 225.206 112.86 226.606 114.38C228.046 115.86 229.786 116.6 231.826 116.6C233.866 116.6 235.586 115.86 236.986 114.38C238.426 112.9 239.146 110.88 239.146 108.32Z" fill="black"/>
<path d="M254.789 108.32C254.789 104.84 255.489 101.8 256.889 99.2C258.329 96.6 260.309 94.6 262.829 93.2C265.389 91.8 268.309 91.1 271.589 91.1C275.789 91.1 279.289 92.2 282.089 94.4C284.929 96.6 286.789 99.7 287.669 103.7H276.749C275.829 101.14 274.049 99.86 271.409 99.86C269.529 99.86 268.029 100.6 266.909 102.08C265.789 103.52 265.229 105.6 265.229 108.32C265.229 111.04 265.789 113.14 266.909 114.62C268.029 116.06 269.529 116.78 271.409 116.78C274.049 116.78 275.829 115.5 276.749 112.94H287.669C286.789 116.86 284.929 119.94 282.089 122.18C279.249 124.42 275.749 125.54 271.589 125.54C268.309 125.54 265.389 124.84 262.829 123.44C260.309 122.04 258.329 120.04 256.889 117.44C255.489 114.84 254.789 111.8 254.789 108.32Z" fill="black"/>
<path d="M311.817 116.36V125.06H306.597C302.877 125.06 299.977 124.16 297.897 122.36C295.817 120.52 294.777 117.54 294.777 113.42V100.1H290.697V91.58H294.777V83.42H305.037V91.58H311.757V100.1H305.037V113.54C305.037 114.54 305.277 115.26 305.757 115.7C306.237 116.14 307.037 116.36 308.157 116.36H311.817Z" fill="black"/>
<path d="M347.199 82.94C351.639 82.94 355.519 83.82 358.839 85.58C362.159 87.34 364.719 89.82 366.519 93.02C368.359 96.18 369.279 99.84 369.279 104C369.279 108.12 368.359 111.78 366.519 114.98C364.719 118.18 362.139 120.66 358.779 122.42C355.459 124.18 351.599 125.06 347.199 125.06H331.419V82.94H347.199ZM346.539 116.3C350.419 116.3 353.439 115.22 355.599 113.06C357.759 110.9 358.839 107.88 358.839 104C358.839 100.12 357.759 97.1 355.599 94.94C353.439 92.78 350.419 91.7 346.539 91.7H341.679V116.3H346.539Z" fill="black"/>
<path d="M380.172 88.1C378.372 88.1 376.892 87.58 375.732 86.54C374.612 85.46 374.052 84.14 374.052 82.58C374.052 80.98 374.612 79.66 375.732 78.62C376.892 77.54 378.372 77 380.172 77C381.932 77 383.372 77.54 384.492 78.62C385.652 79.66 386.232 80.98 386.232 82.58C386.232 84.14 385.652 85.46 384.492 86.54C383.372 87.58 381.932 88.1 380.172 88.1ZM385.272 91.58V125.06H375.012V91.58H385.272Z" fill="black"/>
<path d="M409.508 100.1H403.988V125.06H393.728V100.1H390.008V91.58H393.728V90.62C393.728 86.5 394.908 83.38 397.268 81.26C399.628 79.1 403.088 78.02 407.648 78.02C408.408 78.02 408.968 78.04 409.328 78.08V86.78C407.368 86.66 405.988 86.94 405.188 87.62C404.388 88.3 403.988 89.52 403.988 91.28V91.58H409.508V100.1Z" fill="black"/>
<path d="M431.129 100.1H425.609V125.06H415.349V100.1H411.629V91.58H415.349V90.62C415.349 86.5 416.529 83.38 418.889 81.26C421.249 79.1 424.709 78.02 429.269 78.02C430.029 78.02 430.589 78.04 430.949 78.08V86.78C428.989 86.66 427.609 86.94 426.809 87.62C426.009 88.3 425.609 89.52 425.609 91.28V91.58H431.129V100.1Z" fill="black"/>
<path d="M457.576 82.94L468.016 114.74L478.456 82.94H489.376L474.436 125.06H461.596L446.656 82.94H457.576Z" fill="black"/>
<path d="M498.825 88.1C497.025 88.1 495.545 87.58 494.385 86.54C493.265 85.46 492.705 84.14 492.705 82.58C492.705 80.98 493.265 79.66 494.385 78.62C495.545 77.54 497.025 77 498.825 77C500.585 77 502.025 77.54 503.145 78.62C504.305 79.66 504.885 80.98 504.885 82.58C504.885 84.14 504.305 85.46 503.145 86.54C502.025 87.58 500.585 88.1 498.825 88.1ZM503.925 91.58V125.06H493.665V91.58H503.925Z" fill="black"/>
<path d="M542.92 107.72C542.92 108.64 542.86 109.62 542.74 110.66H519.52C519.68 112.78 520.34 114.4 521.5 115.52C522.66 116.64 524.12 117.2 525.88 117.2C528.44 117.2 530.22 116.12 531.22 113.96H542.14C541.58 116.16 540.56 118.14 539.08 119.9C537.64 121.66 535.82 123.04 533.62 124.04C531.42 125.04 528.96 125.54 526.24 125.54C522.96 125.54 520.04 124.84 517.48 123.44C514.92 122.04 512.92 120.04 511.48 117.44C510.04 114.84 509.32 111.8 509.32 108.32C509.32 104.84 510.02 101.8 511.42 99.2C512.86 96.6 514.86 94.6 517.42 93.2C519.98 91.8 522.92 91.1 526.24 91.1C529.48 91.1 532.36 91.78 534.88 93.14C537.4 94.5 539.36 96.44 540.76 98.96C542.2 101.48 542.92 104.4 542.92 107.72ZM532.42 105.44C532.42 103.52 531.82 102.02 530.62 100.94C529.42 99.86 527.92 99.32 526.12 99.32C524.36 99.32 522.88 99.86 521.68 100.94C520.52 101.98 519.8 103.48 519.52 105.44H532.42Z" fill="black"/>
<path d="M596.393 91.58L587.333 125.06H575.993L570.713 103.34L565.253 125.06H553.973L544.853 91.58H555.113L559.853 115.52L565.493 91.58H576.353L582.053 115.4L586.733 91.58H596.393Z" fill="black"/>
<path d="M631.865 107.72C631.865 108.64 631.805 109.62 631.685 110.66H608.465C608.625 112.78 609.285 114.4 610.445 115.52C611.605 116.64 613.065 117.2 614.825 117.2C617.385 117.2 619.165 116.12 620.165 113.96H631.085C630.525 116.16 629.505 118.14 628.025 119.9C626.585 121.66 624.765 123.04 622.565 124.04C620.365 125.04 617.905 125.54 615.185 125.54C611.905 125.54 608.985 124.84 606.425 123.44C603.865 122.04 601.865 120.04 600.425 117.44C598.985 114.84 598.265 111.8 598.265 108.32C598.265 104.84 598.965 101.8 600.365 99.2C601.805 96.6 603.805 94.6 606.365 93.2C608.925 91.8 611.865 91.1 615.185 91.1C618.425 91.1 621.305 91.78 623.825 93.14C626.345 94.5 628.305 96.44 629.705 98.96C631.145 101.48 631.865 104.4 631.865 107.72ZM621.365 105.44C621.365 103.52 620.765 102.02 619.565 100.94C618.365 99.86 616.865 99.32 615.065 99.32C613.305 99.32 611.825 99.86 610.625 100.94C609.465 101.98 608.745 103.48 608.465 105.44H621.365Z" fill="black"/>
<path d="M647.538 97.58C648.738 95.62 650.238 94.08 652.038 92.96C653.878 91.8 655.878 91.22 658.038 91.22V102.08H655.218C652.658 102.08 650.738 102.64 649.458 103.76C648.178 104.84 647.538 106.76 647.538 109.52V125.06H637.278V91.58H647.538V97.58Z" fill="black"/>
<path d="M83.7569 123.721L83.7569 78.7155C83.7569 77.5315 84.7168 76.5724 85.902 76.5724L107.353 76.5724C108.538 76.5724 109.498 77.5315 109.498 78.7155L109.498 123.721C109.498 124.905 108.538 125.864 107.353 125.864L85.902 125.864C84.7168 125.864 83.7569 124.905 83.7569 123.721Z" fill="#704DFF"/>
<path d="M43 123.721L43 78.7155C43 77.5315 43.96 76.5724 45.1451 76.5724L66.5961 76.5724C67.7813 76.5724 68.7412 77.5315 68.7412 78.7155L68.7412 123.721C68.7412 124.905 67.7813 125.864 66.5961 125.864L45.1451 125.864C43.96 125.864 43 124.905 43 123.721Z" fill="#FF5C8D"/>
<path d="M75.1765 133.365L75.1765 69.0716C75.1765 68.479 75.657 68 76.249 68C76.8411 68 77.3216 68.479 77.3216 69.0716L77.3216 133.365C77.3216 133.957 76.8411 134.436 76.249 134.436C75.657 134.436 75.1765 133.957 75.1765 133.365Z" fill="#D3D3D3"/>
</svg>
