<svg width="617" height="203" viewBox="0 0 617 203" fill="none" xmlns="http://www.w3.org/2000/svg">
<g clip-path="url(#clip0)">
<path d="M120.681 125.06L111.921 109.16H109.461V125.06H99.201V82.94H116.421C119.741 82.94 122.561 83.52 124.881 84.68C127.241 85.84 129.001 87.44 130.161 89.48C131.321 91.48 131.901 93.72 131.901 96.2C131.901 99 131.101 101.5 129.501 103.7C127.941 105.9 125.621 107.46 122.541 108.38L132.261 125.06H120.681ZM109.461 101.9H115.821C117.701 101.9 119.101 101.44 120.021 100.52C120.981 99.6 121.461 98.3 121.461 96.62C121.461 94.98 120.981 93.7 120.021 92.78C119.101 91.82 117.701 91.34 115.821 91.34H109.461V101.9Z" fill="black"/>
<path d="M169.902 107.72C169.902 108.64 169.842 109.62 169.722 110.66H146.502C146.662 112.78 147.322 114.4 148.482 115.52C149.642 116.64 151.102 117.2 152.862 117.2C155.422 117.2 157.202 116.12 158.202 113.96H169.122C168.562 116.16 167.542 118.14 166.062 119.9C164.622 121.66 162.802 123.04 160.602 124.04C158.402 125.04 155.942 125.54 153.222 125.54C149.942 125.54 147.022 124.84 144.462 123.44C141.902 122.04 139.902 120.04 138.462 117.44C137.022 114.84 136.302 111.8 136.302 108.32C136.302 104.84 137.002 101.8 138.402 99.2C139.842 96.6 141.842 94.6 144.402 93.2C146.962 91.8 149.902 91.1 153.222 91.1C156.462 91.1 159.342 91.78 161.862 93.14C164.382 94.5 166.342 96.44 167.742 98.96C169.182 101.48 169.902 104.4 169.902 107.72ZM159.402 105.44C159.402 103.52 158.802 102.02 157.602 100.94C156.402 99.86 154.902 99.32 153.102 99.32C151.342 99.32 149.862 99.86 148.662 100.94C147.502 101.98 146.782 103.48 146.502 105.44H159.402Z" fill="black"/>
<path d="M173.274 108.26C173.274 104.82 173.914 101.8 175.194 99.2C176.514 96.6 178.294 94.6 180.534 93.2C182.774 91.8 185.274 91.1 188.034 91.1C190.394 91.1 192.454 91.58 194.214 92.54C196.014 93.5 197.394 94.76 198.354 96.32V91.58H208.614V125.06H198.354V120.32C197.354 121.88 195.954 123.14 194.154 124.1C192.394 125.06 190.334 125.54 187.974 125.54C185.254 125.54 182.774 124.84 180.534 123.44C178.294 122 176.514 119.98 175.194 117.38C173.914 114.74 173.274 111.7 173.274 108.26ZM198.354 108.32C198.354 105.76 197.634 103.74 196.194 102.26C194.794 100.78 193.074 100.04 191.034 100.04C188.994 100.04 187.254 100.78 185.814 102.26C184.414 103.7 183.714 105.7 183.714 108.26C183.714 110.82 184.414 112.86 185.814 114.38C187.254 115.86 188.994 116.6 191.034 116.6C193.074 116.6 194.794 115.86 196.194 114.38C197.634 112.9 198.354 110.88 198.354 108.32Z" fill="black"/>
<path d="M213.997 108.32C213.997 104.84 214.697 101.8 216.097 99.2C217.537 96.6 219.517 94.6 222.037 93.2C224.597 91.8 227.517 91.1 230.797 91.1C234.997 91.1 238.497 92.2 241.297 94.4C244.137 96.6 245.997 99.7 246.877 103.7H235.957C235.037 101.14 233.257 99.86 230.617 99.86C228.737 99.86 227.237 100.6 226.117 102.08C224.997 103.52 224.437 105.6 224.437 108.32C224.437 111.04 224.997 113.14 226.117 114.62C227.237 116.06 228.737 116.78 230.617 116.78C233.257 116.78 235.037 115.5 235.957 112.94H246.877C245.997 116.86 244.137 119.94 241.297 122.18C238.457 124.42 234.957 125.54 230.797 125.54C227.517 125.54 224.597 124.84 222.037 123.44C219.517 122.04 217.537 120.04 216.097 117.44C214.697 114.84 213.997 111.8 213.997 108.32Z" fill="black"/>
<path d="M271.025 116.36V125.06H265.805C262.085 125.06 259.185 124.16 257.105 122.36C255.025 120.52 253.985 117.54 253.985 113.42V100.1H249.905V91.58H253.985V83.42H264.245V91.58H270.965V100.1H264.245V113.54C264.245 114.54 264.485 115.26 264.965 115.7C265.445 116.14 266.245 116.36 267.365 116.36H271.025Z" fill="black"/>
<path d="M306.407 82.94C310.847 82.94 314.727 83.82 318.047 85.58C321.367 87.34 323.927 89.82 325.727 93.02C327.567 96.18 328.487 99.84 328.487 104C328.487 108.12 327.567 111.78 325.727 114.98C323.927 118.18 321.347 120.66 317.987 122.42C314.667 124.18 310.807 125.06 306.407 125.06H290.627V82.94H306.407ZM305.747 116.3C309.627 116.3 312.647 115.22 314.807 113.06C316.967 110.9 318.047 107.88 318.047 104C318.047 100.12 316.967 97.1 314.807 94.94C312.647 92.78 309.627 91.7 305.747 91.7H300.887V116.3H305.747Z" fill="black"/>
<path d="M339.381 88.1C337.581 88.1 336.101 87.58 334.941 86.54C333.821 85.46 333.261 84.14 333.261 82.58C333.261 80.98 333.821 79.66 334.941 78.62C336.101 77.54 337.581 77 339.381 77C341.141 77 342.581 77.54 343.701 78.62C344.861 79.66 345.441 80.98 345.441 82.58C345.441 84.14 344.861 85.46 343.701 86.54C342.581 87.58 341.141 88.1 339.381 88.1ZM344.481 91.58V125.06H334.221V91.58H344.481Z" fill="black"/>
<path d="M368.716 100.1H363.196V125.06H352.936V100.1H349.216V91.58H352.936V90.62C352.936 86.5 354.116 83.38 356.476 81.26C358.836 79.1 362.296 78.02 366.856 78.02C367.616 78.02 368.176 78.04 368.536 78.08V86.78C366.576 86.66 365.196 86.94 364.396 87.62C363.596 88.3 363.196 89.52 363.196 91.28V91.58H368.716V100.1Z" fill="black"/>
<path d="M390.337 100.1H384.817V125.06H374.557V100.1H370.837V91.58H374.557V90.62C374.557 86.5 375.737 83.38 378.097 81.26C380.457 79.1 383.917 78.02 388.477 78.02C389.237 78.02 389.797 78.04 390.157 78.08V86.78C388.197 86.66 386.817 86.94 386.017 87.62C385.217 88.3 384.817 89.52 384.817 91.28V91.58H390.337V100.1Z" fill="black"/>
<path d="M416.785 82.94L427.225 114.74L437.665 82.94H448.585L433.645 125.06H420.805L405.865 82.94H416.785Z" fill="black"/>
<path d="M458.033 88.1C456.233 88.1 454.753 87.58 453.593 86.54C452.473 85.46 451.913 84.14 451.913 82.58C451.913 80.98 452.473 79.66 453.593 78.62C454.753 77.54 456.233 77 458.033 77C459.793 77 461.233 77.54 462.353 78.62C463.513 79.66 464.093 80.98 464.093 82.58C464.093 84.14 463.513 85.46 462.353 86.54C461.233 87.58 459.793 88.1 458.033 88.1ZM463.133 91.58V125.06H452.873V91.58H463.133Z" fill="black"/>
<path d="M502.128 107.72C502.128 108.64 502.068 109.62 501.948 110.66H478.728C478.888 112.78 479.548 114.4 480.708 115.52C481.868 116.64 483.328 117.2 485.088 117.2C487.648 117.2 489.428 116.12 490.428 113.96H501.348C500.788 116.16 499.768 118.14 498.288 119.9C496.848 121.66 495.028 123.04 492.828 124.04C490.628 125.04 488.168 125.54 485.448 125.54C482.168 125.54 479.248 124.84 476.688 123.44C474.128 122.04 472.128 120.04 470.688 117.44C469.248 114.84 468.528 111.8 468.528 108.32C468.528 104.84 469.228 101.8 470.628 99.2C472.068 96.6 474.068 94.6 476.628 93.2C479.188 91.8 482.128 91.1 485.448 91.1C488.688 91.1 491.568 91.78 494.088 93.14C496.608 94.5 498.568 96.44 499.968 98.96C501.408 101.48 502.128 104.4 502.128 107.72ZM491.628 105.44C491.628 103.52 491.028 102.02 489.828 100.94C488.628 99.86 487.128 99.32 485.328 99.32C483.568 99.32 482.088 99.86 480.888 100.94C479.728 101.98 479.008 103.48 478.728 105.44H491.628Z" fill="black"/>
<path d="M555.601 91.58L546.541 125.06H535.201L529.921 103.34L524.461 125.06H513.181L504.061 91.58H514.321L519.061 115.52L524.701 91.58H535.561L541.261 115.4L545.941 91.58H555.601Z" fill="black"/>
<path d="M591.074 107.72C591.074 108.64 591.014 109.62 590.894 110.66H567.674C567.834 112.78 568.494 114.4 569.654 115.52C570.814 116.64 572.274 117.2 574.034 117.2C576.594 117.2 578.374 116.12 579.374 113.96H590.294C589.734 116.16 588.714 118.14 587.234 119.9C585.794 121.66 583.974 123.04 581.774 124.04C579.574 125.04 577.114 125.54 574.394 125.54C571.114 125.54 568.194 124.84 565.634 123.44C563.074 122.04 561.074 120.04 559.634 117.44C558.194 114.84 557.474 111.8 557.474 108.32C557.474 104.84 558.174 101.8 559.574 99.2C561.014 96.6 563.014 94.6 565.574 93.2C568.134 91.8 571.074 91.1 574.394 91.1C577.634 91.1 580.514 91.78 583.034 93.14C585.554 94.5 587.514 96.44 588.914 98.96C590.354 101.48 591.074 104.4 591.074 107.72ZM580.574 105.44C580.574 103.52 579.974 102.02 578.774 100.94C577.574 99.86 576.074 99.32 574.274 99.32C572.514 99.32 571.034 99.86 569.834 100.94C568.674 101.98 567.954 103.48 567.674 105.44H580.574Z" fill="black"/>
<path d="M606.746 97.58C607.946 95.62 609.446 94.08 611.246 92.96C613.086 91.8 615.086 91.22 617.246 91.22V102.08H614.426C611.866 102.08 609.946 102.64 608.666 103.76C607.386 104.84 606.746 106.76 606.746 109.52V125.06H596.486V91.58H606.746V97.58Z" fill="black"/>
<path d="M35.873 123.721L35.873 78.7155C35.873 77.5315 36.7179 76.5724 37.7611 76.5724L56.6416 76.5724C57.6848 76.5724 58.5297 77.5315 58.5297 78.7155L58.5297 123.721C58.5297 124.905 57.6848 125.864 56.6416 125.864L37.7611 125.864C36.7179 125.864 35.873 124.905 35.873 123.721Z" fill="#704DFF"/>
<path d="M2.91788e-05 123.721L3.09119e-05 78.7155C3.09575e-05 77.5315 0.844935 76.5724 1.88808 76.5724L20.7686 76.5724C21.8118 76.5724 22.6567 77.5315 22.6567 78.7155L22.6567 123.721C22.6567 124.905 21.8118 125.864 20.7686 125.864L1.88808 125.864C0.844933 125.864 2.91332e-05 124.905 2.91788e-05 123.721Z" fill="#FF5C8D"/>
<path d="M28.3208 133.365L28.3208 69.0716C28.3208 68.479 28.7437 68 29.2648 68C29.7859 68 30.2089 68.479 30.2089 69.0716L30.2089 133.365C30.2089 133.957 29.7859 134.436 29.2648 134.436C28.7437 134.436 28.3208 133.957 28.3208 133.365Z" fill="#D3D3D3"/>
</g>
<defs>
<clipPath id="clip0">
<rect width="617" height="203" fill="white"/>
</clipPath>
</defs>
</svg>
